<svg width="16" height="15" viewBox="0 0 16 15" fill="none" xmlns="http://www.w3.org/2000/svg">
<path fill-rule="evenodd" clip-rule="evenodd" d="M0.26111 0.872217C0.33175 0.464071 0.719883 0.190469 1.12803 0.26111L2.62678 0.52051C2.9631 0.578718 3.2177 0.856669 3.24625 1.19679L3.3996 3.02379L4.41509 3.0242C5.42054 3.02464 6.76164 3.0253 8.10419 3.02615C9.44671 3.02701 10.7908 3.02807 11.8022 3.02932C12.3079 3.02994 12.7307 3.03062 13.0286 3.03134C13.1774 3.0317 13.2956 3.03207 13.3775 3.03245L13.4744 3.03306L13.5054 3.03344L13.5223 3.03382L13.5389 3.03449L13.5573 3.03562C13.566 3.03632 13.5907 3.03884 13.6069 3.04094L13.61 3.04136C14.5469 3.17705 15.1983 4.04704 15.0626 4.98549L14.3789 9.70975C14.3789 9.71009 14.3788 9.71043 14.3788 9.71077C14.2341 10.7189 13.3699 11.4694 12.3496 11.4675C12.3493 11.4675 12.3499 11.4675 12.3496 11.4675H4.49084C4.49128 11.4675 4.49172 11.4675 4.49217 11.4675L4.48977 10.7176V11.4675H4.49084M2.44529 9.5879C2.44527 9.58766 2.44531 9.58813 2.44529 9.5879ZM2.44529 9.5879L1.79998 1.89971L0.872217 1.73914C0.464071 1.66849 0.190469 1.28036 0.26111 0.872217M3.52551 4.52384L3.94025 9.46504C3.96369 9.75025 4.20142 9.96847 4.48738 9.96755L4.48977 9.96755L12.3503 9.96755L12.352 9.96755C12.6235 9.96816 12.8553 9.76812 12.894 9.49739L12.8942 9.49616L13.578 4.77081C13.578 4.77079 13.578 4.77083 13.578 4.77081C13.5935 4.66368 13.527 4.56302 13.4262 4.53278L13.3705 4.53244C13.2903 4.53206 13.1735 4.53169 13.0249 4.53133C12.728 4.53061 12.3059 4.52994 11.8004 4.52932C10.7894 4.52807 9.44568 4.52701 8.10323 4.52615C6.76082 4.5253 5.41983 4.52464 4.41444 4.5242L3.52551 4.52384Z" fill="black"/>
<path fill-rule="evenodd" clip-rule="evenodd" d="M8.44629 6.43652C8.44629 6.02231 8.78208 5.68652 9.19629 5.68652H11.1944C11.6086 5.68652 11.9444 6.02231 11.9444 6.43652C11.9444 6.85074 11.6086 7.18652 11.1944 7.18652H9.19629C8.78208 7.18652 8.44629 6.85074 8.44629 6.43652Z" fill="black"/>
<path fill-rule="evenodd" clip-rule="evenodd" d="M4.17323 13.2153C4.39012 13.2153 4.56521 13.3911 4.56521 13.6073C4.56521 13.8242 4.39012 14 4.17323 14C3.95635 14 3.78125 13.8242 3.78125 13.6073C3.78125 13.3911 3.95635 13.2153 4.17323 13.2153Z" fill="black"/>
<path fill-rule="evenodd" clip-rule="evenodd" d="M4.17323 13.9653C4.37146 13.9653 4.53125 13.8045 4.53125 13.6073C4.53125 13.4118 4.37235 13.25 4.17323 13.25C3.97411 13.25 3.81521 13.4118 3.81521 13.6073C3.81521 13.8045 3.97501 13.9653 4.17323 13.9653ZM3.03125 13.6073C3.03125 12.9778 3.54123 12.4653 4.17323 12.4653C4.80523 12.4653 5.31521 12.9778 5.31521 13.6073C5.31521 14.2366 4.80613 14.75 4.17323 14.75C3.54034 14.75 3.03125 14.2366 3.03125 13.6073Z" fill="black"/>
<path fill-rule="evenodd" clip-rule="evenodd" d="M12.3021 13.2153C12.519 13.2153 12.6948 13.3911 12.6948 13.6073C12.6948 13.8242 12.519 14 12.3021 14C12.0853 14 11.9102 13.8242 11.9102 13.6073C11.9102 13.3911 12.0853 13.2153 12.3021 13.2153Z" fill="black"/>
<path fill-rule="evenodd" clip-rule="evenodd" d="M12.3021 13.9653C12.5004 13.9653 12.6602 13.8045 12.6602 13.6073C12.6602 13.4118 12.5013 13.25 12.3021 13.25C12.1048 13.25 11.9448 13.41 11.9448 13.6073C11.9448 13.8063 12.1057 13.9653 12.3021 13.9653ZM11.1602 13.6073C11.1602 12.9778 11.6701 12.4653 12.3021 12.4653C12.9323 12.4653 13.4448 12.976 13.4448 13.6073C13.4448 14.2384 12.9332 14.75 12.3021 14.75C11.6692 14.75 11.1602 14.2366 11.1602 13.6073Z" fill="black"/>
</svg>
