<svg width="15" height="15" viewBox="0 0 15 15" fill="none" xmlns="http://www.w3.org/2000/svg">
<path fill-rule="evenodd" clip-rule="evenodd" d="M7.07906 1.75C4.1359 1.75 1.75 4.1359 1.75 7.07906C1.75 10.0222 4.1359 12.4081 7.07906 12.4081C10.0222 12.4081 12.4081 10.0222 12.4081 7.07906C12.4081 4.1359 10.0222 1.75 7.07906 1.75ZM0.25 7.07906C0.25 3.30747 3.30747 0.25 7.07906 0.25C10.8506 0.25 13.9081 3.30747 13.9081 7.07906C13.9081 10.8506 10.8506 13.9081 7.07906 13.9081C3.30747 13.9081 0.25 10.8506 0.25 7.07906Z" fill="black"/>
<path fill-rule="evenodd" clip-rule="evenodd" d="M10.7766 11.0934C11.0691 10.8001 11.544 10.7995 11.8373 11.092L14.2206 13.4692C14.5139 13.7617 14.5145 14.2366 14.222 14.5299C13.9294 14.8231 13.4546 14.8237 13.1613 14.5312L10.778 12.1541C10.4847 11.8615 10.4841 11.3867 10.7766 11.0934Z" fill="black"/>
</svg>
